<svg width="30" height="30" viewBox="0 0 30 30" fill="none" xmlns="http://www.w3.org/2000/svg">
<path d="M21.4285 5.35718H3.21428C1.43908 5.35718 0 6.79626 0 8.57147V26.7857C0 28.5609 1.43908 30 3.21428 30H21.4285C23.2037 30 24.6428 28.5609 24.6428 26.7857V8.57147C24.6428 6.79626 23.2037 5.35718 21.4285 5.35718ZM22.5 26.7858C22.5 27.3776 22.0203 27.8573 21.4285 27.8573H3.21428C2.62253 27.8573 2.14283 27.3776 2.14283 26.7858V8.57147C2.14283 7.97971 2.62253 7.50002 3.21428 7.50002H21.4285C22.0203 7.50002 22.5 7.97971 22.5 8.57147V26.7858Z" fill="white"/>
<path d="M26.7857 0H7.50005C5.72485 0 4.28577 1.43908 4.28577 3.21429C4.28577 3.80604 4.76546 4.28574 5.35721 4.28574C5.94897 4.28574 6.4286 3.80604 6.4286 3.21429C6.4286 2.62253 6.90829 2.14284 7.50005 2.14284H26.7857C27.3775 2.14284 27.8572 2.62253 27.8572 3.21429V22.5C27.8572 23.0918 27.3775 23.5715 26.7857 23.5715C26.194 23.5715 25.7143 24.0512 25.7143 24.6429C25.7143 25.2347 26.194 25.7144 26.7857 25.7144C28.5609 25.7144 30 24.2753 30 22.5001V3.21429C30 1.43908 28.5609 0 26.7857 0Z" fill="white"/>
</svg>
