<svg width="33" height="32" viewBox="0 0 33 32" fill="none" xmlns="http://www.w3.org/2000/svg">
<g clip-path="url(#clip0)">
<path d="M7.93256 26.6875V31.0625C7.93256 31.58 7.51256 32 6.99506 32H3.24506C2.72693 32 2.30756 31.58 2.30756 31.0625V26.6875C2.30756 26.17 2.72693 25.75 3.24506 25.75H6.99506C7.51256 25.75 7.93256 26.17 7.93256 26.6875Z" fill="white"/>
<path d="M15.4326 22.0527V31.0627C15.4326 31.5802 15.0126 32.0002 14.4951 32.0002H10.7451C10.2269 32.0002 9.80756 31.5802 9.80756 31.0627V22.0527C9.80756 21.5352 10.2269 21.1152 10.7451 21.1152H14.4951C15.0126 21.1152 15.4326 21.5352 15.4326 22.0527Z" fill="white"/>
<path d="M22.9325 15.103V31.0624C22.9325 31.5799 22.5125 31.9999 21.995 31.9999H18.245C17.7269 31.9999 17.3075 31.5799 17.3075 31.0624V15.103C17.3075 14.5849 17.7269 14.1655 18.245 14.1655H21.995C22.5125 14.1655 22.9325 14.585 22.9325 15.103Z" fill="white"/>
<path d="M30.4325 8.18994V31.0624C30.4325 31.5799 30.0125 31.9999 29.495 31.9999H25.745C25.2269 31.9999 24.8075 31.5799 24.8075 31.0624V8.18994C24.8075 7.67182 25.2269 7.25244 25.745 7.25244H29.495C30.0125 7.25244 30.4325 7.67182 30.4325 8.18994Z" fill="white"/>
<path d="M30.5306 1.4644L28.1513 4.9669C27.9763 5.22377 27.6863 5.37752 27.3756 5.37752H24.2438L20.8875 11.7875C20.7256 12.0969 20.4063 12.2906 20.0569 12.2906H16.9244L16.5 13.0644L13.3794 18.7538C13.2144 19.0538 12.8994 19.24 12.5569 19.24H9.36251L6.45438 23.4688C6.28001 23.7231 5.99063 23.875 5.68189 23.875H3.24438C2.72688 23.875 2.30688 23.455 2.30688 22.9375C2.30688 22.42 2.72688 22 3.24438 22H5.18938L8.09688 17.7713C8.27188 17.5169 8.56126 17.365 8.86938 17.365H12.0019L15.5475 10.9019C15.7125 10.6019 16.0275 10.4156 16.3694 10.4156H19.49L22.8456 4.00502C23.0075 3.69627 23.3275 3.50252 23.6763 3.50252H26.8794L28.98 0.410647C29.2706 -0.0174777 29.8538 -0.128728 30.2819 0.161897C30.7106 0.453147 30.8219 1.03627 30.5306 1.4644Z" fill="white"/>
<path d="M7.93256 26.6875V31.0625C7.93256 31.58 7.51256 32 6.99506 32H5.12006V25.75H6.99506C7.51256 25.75 7.93256 26.17 7.93256 26.6875Z" fill="white"/>
<path d="M15.4326 22.0527V31.0627C15.4326 31.5802 15.0126 32.0002 14.4951 32.0002H12.6201V21.1152H14.4951C15.0126 21.1152 15.4326 21.5352 15.4326 22.0527Z" fill="white"/>
<path d="M22.9325 15.103V31.0624C22.9325 31.5799 22.5125 31.9999 21.995 31.9999H20.12V14.1655H21.995C22.5125 14.1655 22.9325 14.585 22.9325 15.103Z" fill="white"/>
<path d="M30.4325 8.18994V31.0624C30.4325 31.5799 30.0125 31.9999 29.495 31.9999H27.62V7.25244H29.495C30.0125 7.25244 30.4325 7.67182 30.4325 8.18994Z" fill="white"/>
<path d="M30.5306 1.4644L28.1513 4.9669C27.9763 5.22377 27.6863 5.37752 27.3756 5.37752H24.2437L20.8875 11.7875C20.7256 12.0969 20.4063 12.2906 20.0569 12.2906H16.9244L16.5 13.0644V10.4156H19.49L22.8456 4.00502C23.0075 3.69627 23.3275 3.50252 23.6763 3.50252H26.8794L28.98 0.410647C29.2706 -0.0174777 29.8538 -0.128728 30.2819 0.161897C30.7106 0.453147 30.8219 1.03627 30.5306 1.4644Z" fill="white"/>
</g>
<defs>
<clipPath id="clip0">
<rect width="32" height="32" fill="white" transform="translate(0.5)"/>
</clipPath>
</defs>
</svg>
