<svg width="40" height="40" viewBox="0 0 40 40" fill="none" xmlns="http://www.w3.org/2000/svg">
<path fill-rule="evenodd" clip-rule="evenodd" d="M20 40C31.0457 40 40 31.0457 40 20C40 8.9543 31.0457 0 20 0C8.9543 0 0 8.9543 0 20C0 31.0457 8.9543 40 20 40ZM28.3 15.5001C29.1 15.4001 29.9 15.2001 30.6 14.9001C30.1 15.7001 29.4 16.4001 28.6 16.7001V17.2001C28.6 22.5001 24.6 28.6001 17.2 28.6001C14.9 28.6001 12.8 27.9001 11 26.8001C11.4 26.9001 11.6999 26.9001 11.9999 26.9001H12C13.9 26.9001 15.6 26.3001 17 25.2001C15.2 25.2001 13.7 24.0001 13.2 22.4001C13.5 22.5001 13.7 22.5001 14 22.5001C14.4 22.5001 14.8 22.5001 15.1 22.4001C13.3 22.1001 11.9 20.4001 11.9 18.5001C12.4 18.8001 13 19.0001 13.7 19.0001C12.6 18.3001 11.9 17.1001 11.9 15.7001C11.9 15.0001 12.1 14.3001 12.4 13.7001C14.4 16.1001 17.4 17.7001 20.7 17.9001C20.6 17.6001 20.6 17.3001 20.6 17.0001C20.6 14.8001 22.4 13.0001 24.6 13.0001C25.7 13.0001 26.8 13.5001 27.5 14.3001C28.5 14.1001 29.3 13.8001 30.1 13.3001C29.8 14.2001 29.1 15.0001 28.3 15.5001Z" fill="white" fill-opacity="0.5"/>
</svg>
