<svg width="33" height="32" viewBox="0 0 33 32" fill="none" xmlns="http://www.w3.org/2000/svg">
<g clip-path="url(#clip0)">
<path fill-rule="evenodd" clip-rule="evenodd" d="M6.60392 5C6.09919 2.4 8.11811 0 10.7427 0C13.0645 0 14.9825 1.9 14.9825 4.2V9.4C15.5881 9.4 16.1938 9.3 16.7995 9.3C17.4052 9.3 17.9099 9.3 18.5156 9.4V4.2C18.5156 1.9 20.4336 0 22.7553 0C25.3799 0 27.3989 2.4 26.9951 5L25.8847 11.1C29.8216 12.8 32.85 15.8 32.85 19.5V21.8C32.85 24.9 30.831 27.5 27.9036 29.2C24.9762 31 21.1402 32 16.7995 32C12.4588 32 8.62285 31 5.6954 29.2C2.8689 27.5 0.849976 24.9 0.849976 21.8V19.5C0.849976 15.8 3.77742 12.8 7.71433 11.1L6.60392 5ZM24.3705 11.9L25.6828 4.7C25.9856 2.9 24.6733 1.2 22.7553 1.2C21.1402 1.2 19.8279 2.5 19.8279 4.1V10.7C19.4241 10.6 18.9194 10.6 18.5156 10.6C17.9099 10.6 17.4052 10.5 16.7995 10.5C16.1938 10.5 15.5881 10.5 14.9825 10.6C14.5787 10.6 14.0739 10.7 13.6702 10.7V4.2C13.6702 2.6 12.3579 1.3 10.7427 1.3C8.92568 1.3 7.51244 3 7.91622 4.8L9.22852 12C4.98878 13.6 2.16228 16.4 2.16228 19.6V21.9C2.16228 26.8 8.72379 30.8 16.7995 30.8C24.8752 30.8 31.4367 26.8 31.4367 21.9V19.6C31.5377 16.3 28.7112 13.5 24.3705 11.9Z" fill="#633001"/>
<path d="M31.5377 21.8C31.5377 26.7 24.9762 30.7 16.9005 30.7C8.82476 30.7 2.26324 26.7 2.26324 21.8V19.5H31.6386V21.8H31.5377Z" fill="#FEDC90"/>
<path fill-rule="evenodd" clip-rule="evenodd" d="M7.91624 4.7998C7.51246 2.9998 8.92571 1.2998 10.7427 1.2998C12.3579 1.2998 13.6702 2.5998 13.6702 4.1998V10.7998C14.6796 10.6998 15.6891 10.5998 16.7995 10.5998C17.809 10.5998 18.8184 10.6998 19.8279 10.7998V4.1998C19.8279 2.5998 21.1402 1.2998 22.7554 1.2998C24.5724 1.2998 25.9856 2.9998 25.6828 4.7998L24.3705 11.9998C28.6102 13.5998 31.5377 16.3998 31.5377 19.5998C31.5377 24.4998 24.9762 28.4998 16.9005 28.4998C8.82476 28.4998 2.26324 24.4998 2.26324 19.5998C2.26324 16.3998 5.08974 13.5998 9.32949 11.9998L7.91624 4.7998Z" fill="#D1884F"/>
<path d="M12.7617 18.9C12.7617 20.2 12.055 21.3 11.1465 21.3C10.238 21.3 9.53137 20.2 9.53137 18.9C9.53137 17.6 10.238 16.5 11.1465 16.5C12.055 16.5 12.7617 17.6 12.7617 18.9Z" fill="#633001"/>
<path d="M23.9667 18.9C23.9667 20.2 23.26 21.3 22.3515 21.3C21.443 21.3 20.7364 20.2 20.7364 18.9C20.7364 17.6 21.443 16.5 22.3515 16.5C23.26 16.5 23.9667 17.6 23.9667 18.9Z" fill="#633001"/>
</g>
<defs>
<clipPath id="clip0">
<rect width="32" height="32" fill="white" transform="translate(0.849976)"/>
</clipPath>
</defs>
</svg>
